<svg width="121" height="116" viewBox="0 0 121 116" fill="none" xmlns="http://www.w3.org/2000/svg">
<path d="M9.30322 32.4539C18.9261 14.7116 36.1142 -6.64708 69.3601 1.97344C102.606 10.594 123.981 39.245 120.306 70.9539C117.698 93.4539 87.4381 115.185 45.8057 115.954C4.13981 116.722 -11.8137 71.313 9.30322 32.4539Z" fill="#EEEEEE"/>
<path d="M77.6417 80.8896V88.9536H47.7617V80.8896H57.8417V54.4296C57.8417 53.7576 57.8537 53.0856 57.8777 52.4136C57.9017 51.7176 57.9377 51.0216 57.9857 50.3256L52.0097 55.2936C51.4817 55.7016 50.9537 55.9536 50.4257 56.0496C49.9217 56.1216 49.4417 56.1216 48.9857 56.0496C48.5297 55.9536 48.1217 55.7976 47.7617 55.5816C47.4017 55.3416 47.1377 55.1016 46.9697 54.8616L43.4417 50.1816L59.7857 36.4656H69.0017V80.8896H77.6417Z" fill="#CCA146"/>
<path d="M73.6417 78.8896V86.9536H43.7617V78.8896H53.8417V52.4296C53.8417 51.7576 53.8537 51.0856 53.8777 50.4136C53.9017 49.7176 53.9377 49.0216 53.9857 48.3256L48.0097 53.2936C47.4817 53.7016 46.9537 53.9536 46.4257 54.0496C45.9217 54.1216 45.4417 54.1216 44.9857 54.0496C44.5297 53.9536 44.1217 53.7976 43.7617 53.5816C43.4017 53.3416 43.1377 53.1016 42.9697 52.8616L39.4417 48.1816L55.7857 34.4656H65.0017V78.8896H73.6417Z" fill="#F6C969"/>
<path d="M73.6417 78.8896H74.3417V78.1896H73.6417V78.8896ZM73.6417 86.9536V87.6536H74.3417V86.9536H73.6417ZM43.7617 86.9536H43.0617V87.6536H43.7617V86.9536ZM43.7617 78.8896V78.1896H43.0617V78.8896H43.7617ZM53.8417 78.8896V79.5896H54.5417V78.8896H53.8417ZM53.8777 50.4136L54.5772 50.4386L54.5772 50.4377L53.8777 50.4136ZM53.9857 48.3256L54.684 48.3738L54.7966 46.7412L53.5382 47.7873L53.9857 48.3256ZM48.0097 53.2936L48.4377 53.8475L48.4476 53.8399L48.4572 53.8319L48.0097 53.2936ZM46.4257 54.0496L46.5247 54.7426L46.5378 54.7407L46.5509 54.7383L46.4257 54.0496ZM44.9857 54.0496L44.8415 54.7346L44.8589 54.7383L44.8765 54.741L44.9857 54.0496ZM43.7617 53.5816L43.3734 54.164L43.3872 54.1733L43.4015 54.1819L43.7617 53.5816ZM42.9697 52.8616L43.5431 52.4602L43.5361 52.4501L43.5286 52.4402L42.9697 52.8616ZM39.4417 48.1816L38.9917 47.6454L38.4828 48.0725L38.8827 48.603L39.4417 48.1816ZM55.7857 34.4656V33.7656H55.5309L55.3357 33.9294L55.7857 34.4656ZM65.0017 34.4656H65.7017V33.7656H65.0017V34.4656ZM65.0017 78.8896H64.3017V79.5896H65.0017V78.8896ZM72.9417 78.8896V86.9536H74.3417V78.8896H72.9417ZM73.6417 86.2536H43.7617V87.6536H73.6417V86.2536ZM44.4617 86.9536V78.8896H43.0617V86.9536H44.4617ZM43.7617 79.5896H53.8417V78.1896H43.7617V79.5896ZM54.5417 78.8896V52.4296H53.1417V78.8896H54.5417ZM54.5417 52.4296C54.5417 51.7659 54.5535 51.1023 54.5772 50.4386L53.1781 50.3886C53.1538 51.0689 53.1417 51.7493 53.1417 52.4296H54.5417ZM54.5772 50.4377C54.601 49.7498 54.6366 49.0618 54.684 48.3738L53.2873 48.2775C53.2388 48.9814 53.2024 49.6855 53.1781 50.3895L54.5772 50.4377ZM53.5382 47.7873L47.5622 52.7553L48.4572 53.8319L54.4332 48.8639L53.5382 47.7873ZM47.5817 52.7397C47.1212 53.0955 46.6946 53.2892 46.3004 53.3609L46.5509 54.7383C47.2128 54.618 47.8422 54.3077 48.4377 53.8475L47.5817 52.7397ZM46.3267 53.3566C45.8847 53.4198 45.4752 53.4182 45.0948 53.3582L44.8765 54.741C45.4081 54.825 45.9586 54.8234 46.5247 54.7426L46.3267 53.3566ZM45.1299 53.3646C44.7417 53.2829 44.4081 53.1532 44.1218 52.9814L43.4015 54.1819C43.8352 54.4421 44.3176 54.6243 44.8415 54.7346L45.1299 53.3646ZM44.15 52.9992C43.831 52.7866 43.6434 52.6034 43.5431 52.4602L42.3962 53.263C42.632 53.5998 42.9723 53.8967 43.3734 54.164L44.15 52.9992ZM43.5286 52.4402L40.0006 47.7602L38.8827 48.603L42.4107 53.283L43.5286 52.4402ZM39.8916 48.7178L56.2356 35.0018L55.3357 33.9294L38.9917 47.6454L39.8916 48.7178ZM55.7857 35.1656H65.0017V33.7656H55.7857V35.1656ZM64.3017 34.4656V78.8896H65.7017V34.4656H64.3017ZM65.0017 79.5896H73.6417V78.1896H65.0017V79.5896Z" fill="#065D63"/>
</svg>
