<svg width="118" height="117" viewBox="0 0 118 117" fill="none" xmlns="http://www.w3.org/2000/svg">
<path d="M2.46123 28.8241C6.5 14.5002 30.4457 -7.0193 68.5 3.00025C106 17 118 26.5002 118 57.5002C118 83.0002 98.5567 115.698 56.9242 116.466C15.2584 117.235 -5.49994 73.0002 2.46123 28.8241Z" fill="#EEEEEE"/>
<path d="M75.136 75.92C76.336 75.92 77.284 76.256 77.98 76.928C78.676 77.576 79.024 78.44 79.024 79.52V86H42.16V82.4C42.16 81.704 42.304 80.96 42.592 80.168C42.88 79.376 43.384 78.656 44.104 78.008L59.224 62.78C60.52 61.484 61.648 60.248 62.608 59.072C63.568 57.896 64.36 56.744 64.984 55.616C65.608 54.464 66.076 53.324 66.388 52.196C66.7 51.044 66.856 49.832 66.856 48.56C66.856 46.472 66.352 44.876 65.344 43.772C64.36 42.644 62.848 42.08 60.808 42.08C59.152 42.08 57.748 42.524 56.596 43.412C55.468 44.276 54.688 45.356 54.256 46.652C53.752 47.972 53.092 48.848 52.276 49.28C51.46 49.712 50.296 49.808 48.784 49.568L42.88 48.524C43.264 45.908 43.996 43.628 45.076 41.684C46.18 39.74 47.536 38.12 49.144 36.824C50.776 35.528 52.636 34.568 54.724 33.944C56.812 33.296 59.056 32.972 61.456 32.972C64.048 32.972 66.376 33.356 68.44 34.124C70.528 34.868 72.304 35.912 73.768 37.256C75.232 38.6 76.348 40.208 77.116 42.08C77.908 43.928 78.304 45.968 78.304 48.2C78.304 50.12 78.028 51.896 77.476 53.528C76.948 55.16 76.216 56.72 75.28 58.208C74.344 59.672 73.252 61.1 72.004 62.492C70.78 63.86 69.472 65.252 68.08 66.668L57.82 77.18C59.14 76.772 60.448 76.46 61.744 76.244C63.04 76.028 64.24 75.92 65.344 75.92H75.136Z" fill="#CCA146"/>
<path d="M71.136 73.92C72.336 73.92 73.284 74.256 73.98 74.928C74.676 75.576 75.024 76.44 75.024 77.52V84H38.16V80.4C38.16 79.704 38.304 78.96 38.592 78.168C38.88 77.376 39.384 76.656 40.104 76.008L55.224 60.78C56.52 59.484 57.648 58.248 58.608 57.072C59.568 55.896 60.36 54.744 60.984 53.616C61.608 52.464 62.076 51.324 62.388 50.196C62.7 49.044 62.856 47.832 62.856 46.56C62.856 44.472 62.352 42.876 61.344 41.772C60.36 40.644 58.848 40.08 56.808 40.08C55.152 40.08 53.748 40.524 52.596 41.412C51.468 42.276 50.688 43.356 50.256 44.652C49.752 45.972 49.092 46.848 48.276 47.28C47.46 47.712 46.296 47.808 44.784 47.568L38.88 46.524C39.264 43.908 39.996 41.628 41.076 39.684C42.18 37.74 43.536 36.12 45.144 34.824C46.776 33.528 48.636 32.568 50.724 31.944C52.812 31.296 55.056 30.972 57.456 30.972C60.048 30.972 62.376 31.356 64.44 32.124C66.528 32.868 68.304 33.912 69.768 35.256C71.232 36.6 72.348 38.208 73.116 40.08C73.908 41.928 74.304 43.968 74.304 46.2C74.304 48.12 74.028 49.896 73.476 51.528C72.948 53.16 72.216 54.72 71.28 56.208C70.344 57.672 69.252 59.1 68.004 60.492C66.78 61.86 65.472 63.252 64.08 64.668L53.82 75.18C55.14 74.772 56.448 74.46 57.744 74.244C59.04 74.028 60.24 73.92 61.344 73.92H71.136Z" fill="#F6C969"/>
<path d="M73.98 74.928L73.4937 75.4317L73.503 75.4403L73.98 74.928ZM75.024 84V84.7H75.724V84H75.024ZM38.16 84H37.46V84.7H38.16V84ZM38.592 78.168L39.2499 78.4072L38.592 78.168ZM40.104 76.008L40.5723 76.5283L40.5869 76.5152L40.6007 76.5012L40.104 76.008ZM55.224 60.78L54.729 60.285L54.7273 60.2868L55.224 60.78ZM58.608 57.072L59.1503 57.5147L58.608 57.072ZM60.984 53.616L61.5965 53.9549L61.5995 53.9494L60.984 53.616ZM62.388 50.196L63.0627 50.3826L63.0637 50.379L62.388 50.196ZM61.344 41.772L60.8165 42.2322L60.8217 42.2381L60.8271 42.244L61.344 41.772ZM52.596 41.412L53.0217 41.9677L53.0234 41.9664L52.596 41.412ZM50.256 44.652L50.91 44.9017L50.9153 44.8876L50.9201 44.8734L50.256 44.652ZM44.784 47.568L44.6621 48.2574L44.6743 48.2593L44.784 47.568ZM38.88 46.524L38.1874 46.4223L38.0887 47.0949L38.7581 47.2133L38.88 46.524ZM41.076 39.684L40.4673 39.3383L40.4641 39.344L41.076 39.684ZM45.144 34.824L44.7087 34.2758L44.7047 34.279L45.144 34.824ZM50.724 31.944L50.9244 32.6147L50.9315 32.6125L50.724 31.944ZM64.44 32.124L64.1959 32.7801L64.205 32.7834L64.44 32.124ZM69.768 35.256L69.2946 35.7717H69.2946L69.768 35.256ZM73.116 40.08L72.4683 40.3457L72.4726 40.3557L73.116 40.08ZM73.476 51.528L72.8128 51.3037L72.81 51.3125L73.476 51.528ZM71.28 56.208L71.8698 56.5851L71.8725 56.5807L71.28 56.208ZM68.004 60.492L67.4828 60.0247L67.4823 60.0252L68.004 60.492ZM64.08 64.668L63.5808 64.1773L63.5791 64.1791L64.08 64.668ZM53.82 75.18L53.3191 74.6911L54.0267 75.8488L53.82 75.18ZM57.744 74.244L57.6289 73.5535L57.744 74.244ZM71.136 74.62C72.2005 74.62 72.958 74.9142 73.4938 75.4316L74.4662 74.4244C73.61 73.5978 72.4715 73.22 71.136 73.22V74.62ZM73.503 75.4403C74.0368 75.9373 74.324 76.6053 74.324 77.52H75.724C75.724 76.2747 75.3152 75.2147 74.457 74.4157L73.503 75.4403ZM74.324 77.52V84H75.724V77.52H74.324ZM75.024 83.3H38.16V84.7H75.024V83.3ZM38.86 84V80.4H37.46V84H38.86ZM38.86 80.4C38.86 79.8008 38.984 79.1382 39.2499 78.4072L37.9341 77.9288C37.624 78.7818 37.46 79.6073 37.46 80.4H38.86ZM39.2499 78.4072C39.4931 77.7382 39.9247 77.1111 40.5723 76.5283L39.6357 75.4877C38.8433 76.2009 38.2669 77.0138 37.9341 77.9288L39.2499 78.4072ZM40.6007 76.5012L55.7207 61.2732L54.7273 60.2868L39.6073 75.5148L40.6007 76.5012ZM55.719 61.275C57.0283 59.9656 58.1727 58.7122 59.1503 57.5147L58.0657 56.6293C57.1233 57.7838 56.0117 59.0024 54.729 60.285L55.719 61.275ZM59.1503 57.5147C60.1322 56.3118 60.9491 55.1252 61.5965 53.9548L60.3715 53.2772C59.7709 54.3627 59.0038 55.4802 58.0657 56.6293L59.1503 57.5147ZM61.5995 53.9494C62.2458 52.7563 62.735 51.5673 63.0627 50.3826L61.7133 50.0094C61.417 51.0807 60.9702 52.1717 60.3685 53.2826L61.5995 53.9494ZM63.0637 50.379C63.3928 49.1635 63.556 47.8898 63.556 46.56H62.156C62.156 47.7742 62.0072 48.9244 61.7123 50.013L63.0637 50.379ZM63.556 46.56C63.556 44.3668 63.0264 42.5764 61.8609 41.3L60.8271 42.244C61.6776 43.1756 62.156 44.5772 62.156 46.56H63.556ZM61.8715 41.3118C60.7112 39.9818 58.9733 39.38 56.808 39.38V40.78C58.7227 40.78 60.0088 41.3062 60.8165 42.2322L61.8715 41.3118ZM56.808 39.38C55.0198 39.38 53.4598 39.8623 52.1686 40.8576L53.0234 41.9664C54.0362 41.1857 55.2842 40.78 56.808 40.78V39.38ZM52.1703 40.8563C50.936 41.8018 50.07 42.9963 49.5919 44.4306L50.9201 44.8734C51.306 43.7157 52 42.7502 53.0217 41.9677L52.1703 40.8563ZM49.602 44.4023C49.1277 45.6446 48.5526 46.3415 47.9485 46.6613L48.6035 47.8986C49.6314 47.3545 50.3763 46.2993 50.91 44.9017L49.602 44.4023ZM47.9485 46.6613C47.3293 46.9892 46.3459 47.1072 44.8937 46.8767L44.6743 48.2593C46.2461 48.5088 47.5907 48.4348 48.6035 47.8986L47.9485 46.6613ZM44.9059 46.8787L39.0019 45.8347L38.7581 47.2133L44.6621 48.2573L44.9059 46.8787ZM39.5726 46.6257C39.9466 44.0779 40.6559 41.8815 41.6879 40.0239L40.4641 39.344C39.3361 41.3745 38.5814 43.7381 38.1874 46.4223L39.5726 46.6257ZM41.6847 40.0297C42.7489 38.1558 44.0492 36.6054 45.5833 35.369L44.7047 34.279C43.0228 35.6346 41.6111 37.3242 40.4673 39.3383L41.6847 40.0297ZM45.5793 35.3722C47.1384 34.1341 48.9179 33.2144 50.9244 32.6147L50.5236 31.2733C48.3542 31.9216 46.4136 32.9219 44.7087 34.2758L45.5793 35.3722ZM50.9315 32.6125C52.9461 31.9873 55.1195 31.672 57.456 31.672V30.272C54.9925 30.272 52.6779 30.6047 50.5165 31.2755L50.9315 32.6125ZM57.456 31.672C59.9791 31.672 62.2225 32.0458 64.1959 32.7801L64.6841 31.4679C62.5295 30.6662 60.1169 30.272 57.456 30.272V31.672ZM64.205 32.7834C66.2149 33.4996 67.9072 34.498 69.2946 35.7717L70.2414 34.7403C68.7008 33.326 66.8411 32.2364 64.675 31.4646L64.205 32.7834ZM69.2946 35.7717C70.6815 37.0448 71.7387 38.567 72.4684 40.3457L73.7636 39.8143C72.9573 37.849 71.7825 36.1551 70.2414 34.7403L69.2946 35.7717ZM72.4726 40.3557C73.2233 42.1075 73.604 44.0523 73.604 46.2H75.004C75.004 43.8837 74.5927 41.7485 73.7594 39.8043L72.4726 40.3557ZM73.604 46.2C73.604 48.0524 73.3378 49.7517 72.8129 51.3037L74.1391 51.7523C74.7182 50.0403 75.004 48.1876 75.004 46.2H73.604ZM72.81 51.3125C72.3003 52.8879 71.5933 54.3952 70.6875 55.8353L71.8725 56.5807C72.8387 55.0448 73.5957 53.4321 74.142 51.7435L72.81 51.3125ZM70.6902 55.8309C69.7761 57.2608 68.7074 58.6588 67.4828 60.0247L68.5252 60.9593C69.7966 59.5412 70.9119 58.0832 71.8698 56.5851L70.6902 55.8309ZM67.4823 60.0252C66.2662 61.3844 64.9657 62.7685 63.5808 64.1773L64.5792 65.1587C65.9783 63.7355 67.2938 62.3355 68.5257 60.9588L67.4823 60.0252ZM63.5791 64.1791L53.3191 74.6911L54.3209 75.6689L64.5809 65.1569L63.5791 64.1791ZM54.0267 75.8488C55.3182 75.4496 56.5956 75.1451 57.8591 74.9345L57.6289 73.5535C56.3004 73.7749 54.9618 74.0944 53.6133 74.5112L54.0267 75.8488ZM57.8591 74.9345C59.124 74.7237 60.285 74.62 61.344 74.62V73.22C60.195 73.22 58.956 73.3323 57.6289 73.5535L57.8591 74.9345ZM61.344 74.62H71.136V73.22H61.344V74.62Z" fill="#065D63"/>
</svg>
