<svg width="138" height="140" viewBox="0 0 138 140" fill="none" xmlns="http://www.w3.org/2000/svg">
<path d="M12.5671 34.1056L12.3563 33.9713L12.5672 34.1056C12.6321 34.0037 12.7035 33.8911 12.7814 33.7681C16.0328 28.6365 30.632 5.59525 59.5964 1.8279L59.5965 1.82789C77.5586 -0.511823 98.499 4.20516 113.652 16.8442L113.652 16.8443C129.554 30.1021 136.95 50.1362 137.688 69.6772C138.427 89.2237 132.502 108.227 121.824 119.416C119.008 122.365 116.342 124.273 114.228 125.783C89.42 143.5 60.0499 138.339 53.7936 137.076C44.5463 135.207 26.7518 131.606 13.8875 116.55C-5.56987 93.7733 -2.56099 57.8412 12.5671 34.1056Z" fill="#DDDDDD" fill-opacity="0.2" stroke="#EFEFEF" stroke-width="0.5"/>
<path d="M29.8678 17.5922C38.1977 22.3399 85.4109 52.156 62.5118 106.549C62.5118 106.549 25.8556 95.8365 28.5813 18.4224C28.6135 17.7373 29.3291 17.2778 29.8678 17.5922Z" fill="#EAEAEA"/>
<path opacity="0.15" d="M36.4686 26.8614C37.5138 28.1834 38.4948 29.5456 39.4516 30.924C39.934 31.6091 40.4003 32.3104 40.8667 33.0036C41.325 33.7049 41.7913 34.4061 42.2336 35.1155C44.0346 37.9528 45.7311 40.8466 47.3231 43.8129C50.4911 49.7374 53.265 55.8796 55.452 62.2394C56.0229 63.8193 56.4973 65.4314 57.0038 67.0355C57.4541 68.6557 57.9284 70.2678 58.3063 71.9122C58.7325 73.5404 59.038 75.1928 59.3918 76.8452C59.5365 77.6755 59.6732 78.5057 59.8179 79.336C59.8823 79.7551 59.9627 80.1662 60.019 80.5854L60.1798 81.8348L60.3406 83.0842C60.3969 83.5033 60.4531 83.9225 60.4853 84.3416L60.7024 86.8565C60.7185 87.0661 60.7426 87.2757 60.7506 87.4852L60.7748 88.114L60.831 89.3795C60.8632 90.2178 60.9195 91.0642 60.9034 91.9025L60.8954 94.4335C60.8712 95.2718 60.815 96.1182 60.7828 96.9565L60.7185 98.222C60.6863 98.6411 60.6381 99.0603 60.5979 99.4794L60.3486 101.994C60.3325 102.18 60.1637 102.317 59.9788 102.301C59.7938 102.285 59.6571 102.115 59.6732 101.93V101.914L59.9386 99.423C59.9788 99.0039 60.027 98.5928 60.0672 98.1736L60.1396 96.9242C60.1798 96.094 60.2441 95.2557 60.2682 94.4174L60.2843 91.9105C60.3084 91.0722 60.2602 90.242 60.228 89.4037L60.1798 88.1543L60.1556 87.5256C60.1476 87.316 60.1235 87.1064 60.1074 86.8968L59.8984 84.398C59.8742 83.9789 59.8179 83.5678 59.7617 83.1486L59.6089 81.9073L59.4561 80.666C59.3998 80.2549 59.3275 79.8438 59.2632 79.4246C59.1265 78.6025 58.9978 77.7722 58.8531 76.95C58.5154 75.3137 58.2179 73.6613 57.7998 72.0411C57.438 70.4048 56.9636 68.8008 56.5294 67.1806C56.0309 65.5846 55.5646 63.9725 55.0098 62.3926C52.863 56.0489 50.1292 49.9067 47.0015 43.9902C45.4336 41.032 43.7532 38.1301 41.9682 35.2928C41.526 34.5835 41.0677 33.8822 40.6094 33.1809C40.143 32.4877 39.6847 31.7864 39.2104 31.1013C38.2616 29.7229 37.2887 28.3526 36.2595 27.0387C36.2113 26.9743 36.2193 26.8856 36.2836 26.8372C36.3239 26.7808 36.4123 26.7969 36.4686 26.8614Z" fill="white"/>
<path d="M129.424 1.26976C131.997 13.2236 143.728 83.1978 71.0431 101.657C71.0431 101.657 49.8406 56.7993 127.503 0.60879C128.186 0.117093 129.256 0.487881 129.424 1.26976Z" fill="#EAEAEA"/>
<path opacity="0.42" d="M119.567 15.8193C118.851 19.6078 118.007 23.3641 117.098 27.1122C116.19 30.8524 115.201 34.5764 114.132 38.2762C112.001 45.6758 109.573 52.9948 106.75 60.1688C103.928 67.3347 100.712 74.3635 96.893 81.0699C94.9793 84.4151 92.9129 87.6796 90.6295 90.7991C88.3621 93.9185 85.8535 96.8768 83.1037 99.6013C82.967 99.7383 82.7499 99.7302 82.6132 99.6013C82.4765 99.4642 82.4845 99.2466 82.6132 99.1096C85.3389 96.4334 87.8314 93.5074 90.0988 90.4202C92.3742 87.3411 94.4487 84.1007 96.3703 80.7797C100.206 74.1297 103.438 67.1331 106.284 59.9995C109.13 52.8578 111.583 45.5549 113.746 38.1794C114.823 34.4877 115.828 30.7717 116.753 27.0397C117.677 23.3076 118.538 19.5514 119.261 15.779C119.277 15.6984 119.35 15.6501 119.43 15.6662C119.527 15.6662 119.575 15.7387 119.567 15.8193Z" fill="white"/>
<path d="M97.6654 117.826C98.7669 117.826 99.7157 117.02 99.9649 115.884C102.482 104.252 104.797 91.7743 105.529 80.9409C85.3153 68.9548 66.5008 66.722 40.667 79.7721C41.5675 91.9839 44.3897 104.558 47.1878 116.013C47.445 117.077 48.3536 117.826 49.3989 117.826H97.6654Z" fill="#CACACA"/>
<path d="M67.3301 53.2446L64.339 75.0002C64.331 75.0486 64.3069 75.097 64.2828 75.1453C63.8888 75.9998 74.888 82.6901 82.5827 73.6702L78.2409 52.7207L67.3301 53.2446Z" fill="url(#paint0_linear)"/>
<path d="M64.0013 49.5687C64.0013 49.5687 64.9259 41.7982 61.8947 40.6456C58.8634 39.4848 55.1809 41.2904 57.2232 46.296C59.764 52.5269 64.0013 49.5687 64.0013 49.5687Z" fill="url(#paint1_linear)"/>
<path d="M80.541 49.1741C80.541 49.1741 79.6163 41.4037 82.6476 40.251C85.6788 39.0903 89.3613 40.8959 87.319 45.9015C84.7783 52.1324 80.541 49.1741 80.541 49.1741Z" fill="url(#paint2_linear)"/>
<path d="M59 35.6074C67.965 27.6113 76.52 26.5876 84.4639 35.6074C83.9574 51.906 83.1131 67.5597 72.7169 66.4635C61.9428 68.4464 60.6081 51.3659 59 35.6074Z" fill="url(#paint3_linear)"/>
<path d="M82.1495 37.0906C82.1334 36.3168 82.1334 35.543 82.1816 34.7611C82.1897 34.6079 82.2058 34.4387 82.3023 34.3178C82.447 34.1404 84.7707 34.1082 85.6873 34.1485C85.8159 38.6866 82.3987 62.7475 81.5786 64.8836C81.1927 65.8831 80.0992 66.399 79.0941 66.7617C77.3976 67.3743 75.5805 67.592 73.7955 67.6C70.8125 67.6161 67.5079 67.1647 65.0154 65.3914C61.767 63.078 60.2072 44.8933 59.6685 42.5557C59.0413 39.8312 59.0333 37.0181 58.9609 34.2372C58.9609 34.1485 58.9609 34.0518 59.0092 33.9792C59.0655 33.8905 59.178 33.8583 59.2826 33.8341C61.0756 33.3908 61.9439 33.5439 61.8474 35.2528C61.751 37.0422 61.751 38.8156 61.8957 40.6373C62.1449 43.8857 62.6113 47.1261 63.2947 50.31C63.8415 52.841 64.4525 54.9368 67.122 55.8799C68.5853 56.3958 69.9441 55.7106 71.3351 55.2915C73.8679 54.5257 75.8538 56.5489 78.4107 55.9202C83.2108 54.7433 82.053 47.1261 82.2701 43.4262C82.3746 41.2821 82.1897 39.1944 82.1495 37.0906Z" fill="#4D4D4D"/>
<path d="M77.5409 17.3747C80.4756 18.0921 81.8264 19.9783 82.7671 22.6222C83.5953 24.9597 86.1602 26.6122 86.6265 29.0787C86.6828 29.3528 86.6747 29.643 86.6587 29.9251C86.5541 32.5125 85.8868 34.9307 85.2596 37.4214C85.0425 38.3 84.9621 38.6547 83.8365 38.4371C83.0726 38.292 82.7108 37.9292 82.4696 37.1716C82.148 36.1398 82.2606 34.9952 81.4726 34.1488C80.4032 33.0042 78.755 32.3997 77.2032 32.6334C76.6243 32.7221 76.0695 32.9075 75.4986 33.0365C72.2664 33.7539 68.7366 32.3755 65.6411 33.5604C63.8079 34.2617 62.2882 35.9544 61.8139 37.8648C61.7254 38.2033 60.8651 42.4674 59.7314 40.3394C58.2279 37.5101 57.5605 33.6168 57.1906 30.4571C56.8771 27.7729 57.07 24.6293 59.2168 22.993C61.7013 21.0907 65.3758 22.2675 68.2864 21.1229C70.2965 20.333 71.7518 18.5032 73.7378 17.6407C74.9438 17.1168 76.2785 17.0604 77.5409 17.3747Z" fill="#4D4D4D"/>
<path d="M117.952 125.265C109.003 122.412 92.2792 120.485 73.127 120.485C53.9747 120.485 37.2507 122.404 28.3017 125.265H21.3789V130.045C21.3789 135.325 44.5514 139.597 73.127 139.597C101.703 139.597 124.875 135.317 124.875 130.037V125.257H117.952V125.265Z" fill="#C6C5C5"/>
<path d="M73.127 134.818C101.707 134.818 124.875 130.541 124.875 125.266C124.875 119.99 101.707 115.714 73.127 115.714C44.5473 115.714 21.3789 119.99 21.3789 125.266C21.3789 130.541 44.5473 134.818 73.127 134.818Z" fill="#C9C9C9"/>
<path d="M74.1318 127.652C95.8419 127.652 113.441 125.454 113.441 122.743C113.441 120.032 95.8419 117.834 74.1318 117.834C52.4218 117.834 34.8223 120.032 34.8223 122.743C34.8223 125.454 52.4218 127.652 74.1318 127.652Z" fill="#C6C5C5"/>
<path d="M27.8509 87.3086C27.8509 87.3086 14.938 55.5176 15.8867 55.5176C16.8436 55.5176 23.5171 63.0059 22.5603 70.1798C22.5683 70.1798 34.251 92.3303 27.8509 87.3086Z" fill="#D8D8D8"/>
<path d="M23.0824 97.2236C23.0824 97.2236 20.6944 81.4489 20.815 79.1758C20.9356 76.9027 24.9879 72.2437 25.7035 72.3646C26.4191 72.4855 26.2985 74.7586 26.2985 74.7586C26.2985 74.7586 28.4453 73.4447 27.8503 76.669C27.8503 76.669 30.2383 76.669 29.0403 80.256C29.0403 80.256 30.8253 79.6595 29.9971 81.9326C29.1609 84.2057 27.8503 87.309 27.8503 87.309L31.1871 100.214L23.0824 97.2236Z" fill="url(#paint4_linear)"/>
<path d="M22.2383 91.4438C22.6966 94.66 23.0825 97.2233 23.0825 97.2233L31.1873 100.214L28.6626 90.4443C26.5238 90.7748 24.3851 91.1053 22.2383 91.4438Z" fill="#C9C9C9" fill-opacity="0.3"/>
<path d="M40.6507 79.1514L47.3644 109.911C47.3644 109.911 44.502 128.377 38.1421 129.022C34.2264 129.417 30.9137 129.877 26.781 118.084C22.6482 106.291 21.9326 93.6443 21.9326 93.6443L30.8333 91.0972L34.6445 103.672L40.6507 79.1514Z" fill="#CFCFCF"/>
<path d="M47.3646 109.911L40.6508 79.748L34.709 103.978C37.3784 113.248 41.3262 118.616 40.9725 125.194C40.9242 126.072 39.7584 127.394 38.7935 128.894C44.7917 125.742 47.3646 109.911 47.3646 109.911Z" fill="#C4C4C4"/>
<path d="M125.711 67.6406C123.774 70.7117 108.521 96.0059 114.527 92.1691C114.527 92.1691 122.624 76.7572 126.74 68.5112C126.387 68.229 126.041 67.9469 125.711 67.6406Z" fill="#D8D8D8"/>
<path d="M128.221 60.6201C128.221 60.6201 121.089 66.5528 125.688 69.5755C130.287 72.5982 132.683 63.3285 132.683 63.3285C132.683 63.3285 131.147 65.0293 129.129 68.1488C129.129 68.1488 128.349 69.5352 128.124 68.8259C127.931 68.2455 131.075 63.9975 131.204 62.2C131.204 62.2 129.129 64.6182 127.754 67.2863C126.693 69.3498 126.789 67.8586 127.979 65.4162C128.944 63.4413 129.973 61.6116 129.692 61.4101C129.411 61.2085 126.846 65.1744 125.624 66.6898C124.9 67.5926 125.23 66.7785 125.929 65.255C126.355 64.3361 127.722 62.2081 128.221 60.6201Z" fill="#D8D8D8"/>
<path d="M122.302 97.7633C122.302 97.7633 124.569 82.7705 124.457 80.6184C124.344 78.4581 120.493 74.0328 119.81 74.1457C119.126 74.2585 119.247 76.4188 119.247 76.4188C119.247 76.4188 117.204 75.1694 117.775 78.2324C117.775 78.2324 115.508 78.2324 116.642 81.642C116.642 81.642 114.945 81.0778 115.733 83.23C116.529 85.3902 117.775 88.3404 117.775 88.3404L114.607 100.601L122.302 97.7633Z" fill="url(#paint5_linear)"/>
<path d="M123.105 92.2659C122.671 95.3208 122.301 97.7551 122.301 97.7551L114.599 100.592L117.003 91.3066C119.037 91.6291 121.071 91.9515 123.105 92.2659Z" fill="#C9C9C9" fill-opacity="0.3"/>
<path d="M105.618 80.5859L99.1455 109.443C99.1455 109.443 101.96 127.354 107.998 127.966C111.713 128.337 114.873 128.78 118.796 117.576C122.72 106.372 123.403 94.3535 123.403 94.3535L114.945 91.9272L111.327 103.873L105.618 80.5859Z" fill="#CFCFCF"/>
<path d="M99.001 109.033L105.618 81.1592L111.263 104.18C108.73 112.991 104.975 118.093 105.313 124.34C105.361 125.17 106.253 126.863 107.17 128.281C101.469 125.283 99.001 109.033 99.001 109.033Z" fill="#C4C4C4"/>
<path d="M73.126 125.178C87.1317 125.178 98.4855 122.713 98.4855 119.672C98.4855 116.632 87.1317 114.167 73.126 114.167C59.1204 114.167 47.7666 116.632 47.7666 119.672C47.7666 122.713 59.1204 125.178 73.126 125.178Z" fill="white"/>
<path d="M73.1267 123.847C82.8072 123.847 90.6548 122.144 90.6548 120.043C90.6548 117.942 82.8072 116.238 73.1267 116.238C63.4462 116.238 55.5986 117.942 55.5986 120.043C55.5986 122.144 63.4462 123.847 73.1267 123.847Z" fill="#F4F4F4"/>
<path d="M86.4881 37.8567C86.3916 37.8567 86.2951 37.7922 86.2629 37.6874C86.0619 37.0587 86.2468 36.3332 86.7212 35.8818C87.1956 35.4224 87.9193 35.2692 88.5384 35.4869C88.8761 35.6078 89.1655 35.8254 89.4389 36.035C89.7444 36.2687 90.0258 36.4864 90.3635 36.5509C90.846 36.6395 91.3927 36.301 91.5214 35.8254C91.5616 35.6884 91.5696 35.5433 91.5857 35.3901C91.6018 35.2128 91.6098 35.0355 91.6661 34.8501C91.8349 34.2536 92.4058 33.7861 93.0732 33.6894C93.636 33.6087 94.2712 33.7861 94.8019 34.173C94.9385 34.2697 95.0592 34.3745 95.1878 34.4793C95.4773 34.7292 95.7587 34.9629 96.0883 35.0274C96.5064 35.108 96.9728 34.8259 97.1014 34.4148C97.1577 34.2214 97.1577 33.9957 97.1577 33.7619C97.1577 33.3911 97.1577 32.972 97.423 32.6415C97.5758 32.448 97.8009 32.311 98.0904 32.2143C98.9186 31.9563 99.8995 32.2304 100.47 32.8833C100.559 32.98 100.551 33.1332 100.446 33.2218C100.35 33.3105 100.197 33.3024 100.109 33.1977C99.6502 32.6818 98.8784 32.4641 98.219 32.6737C98.018 32.7382 97.8653 32.8269 97.7768 32.9397C97.616 33.1412 97.616 33.4314 97.616 33.77C97.616 34.0279 97.616 34.302 97.5356 34.5599C97.3346 35.1967 96.6431 35.6158 95.9918 35.503C95.5416 35.4224 95.1958 35.1322 94.8742 34.8501C94.7536 34.7453 94.641 34.6486 94.5204 34.5599C94.0863 34.2455 93.5797 34.1004 93.1375 34.1649C92.6551 34.2375 92.237 34.576 92.1164 34.9871C92.0762 35.1241 92.0681 35.2692 92.052 35.4304C92.036 35.5997 92.0279 35.7771 91.9716 35.9624C91.7706 36.6718 90.9907 37.1554 90.2671 37.0264C89.8248 36.9458 89.4791 36.6798 89.1414 36.4219C88.8841 36.2284 88.6429 36.0431 88.3776 35.9463C87.9273 35.7851 87.3886 35.906 87.0428 36.2365C86.6971 36.567 86.5685 37.099 86.7132 37.5584C86.7534 37.6794 86.681 37.8164 86.5604 37.8567C86.5363 37.8486 86.5122 37.8567 86.4881 37.8567Z" fill="white"/>
<path d="M52.5186 34.8584C52.39 34.8584 52.2694 34.8423 52.1407 34.8101C51.7065 34.6972 51.3527 34.4151 51.1919 34.0362C51.0713 33.7541 51.0472 33.4559 51.0311 33.1657C51.007 32.8675 50.9909 32.5853 50.8542 32.3677C50.7578 32.2065 50.5809 32.0856 50.3638 32.0453C50.1547 31.9969 49.9457 32.0372 49.7849 32.142C49.608 32.2629 49.4874 32.4564 49.3587 32.6579C49.2542 32.8191 49.1497 32.9803 49.013 33.1335C48.6833 33.4801 48.2009 33.6735 47.7265 33.6493C47.3486 33.6332 47.019 33.472 46.826 33.2221C46.4963 32.811 46.5687 32.2871 46.633 31.8276C46.6893 31.4246 46.7375 31.0377 46.5365 30.7878C46.3597 30.5702 46.03 30.5218 45.7807 30.5782C45.4672 30.6427 45.1777 30.8362 44.9043 31.0216C44.8641 31.0458 44.84 31.078 44.8159 31.1022C44.8641 31.1989 44.84 31.3118 44.7596 31.3843C44.6631 31.473 44.5104 31.4649 44.4219 31.3682C44.3495 31.2876 44.3174 31.1828 44.3254 31.0699C44.3495 30.8442 44.5586 30.683 44.6229 30.6347C44.9204 30.4251 45.2662 30.1994 45.6762 30.1107C46.1586 30.014 46.633 30.1672 46.8984 30.4896C47.22 30.9007 47.1556 31.4246 47.0913 31.8841C47.035 32.2871 46.9868 32.674 47.1878 32.9239C47.3004 33.069 47.5094 33.1576 47.7506 33.1738C48.0883 33.1899 48.4341 33.0528 48.6672 32.811C48.7798 32.6982 48.8683 32.5531 48.9647 32.408C49.1175 32.1742 49.2703 31.9324 49.5195 31.7551C49.7849 31.5697 50.1226 31.5052 50.4603 31.5778C50.798 31.6503 51.0874 31.8438 51.2563 32.1178C51.4492 32.4402 51.4734 32.7949 51.4975 33.1335C51.5136 33.3914 51.5296 33.6413 51.6261 33.8508C51.7306 34.0927 51.9638 34.2781 52.2613 34.3506C52.5508 34.4232 52.8483 34.3748 53.0573 34.2136C53.2422 34.0685 53.3789 33.8589 53.5237 33.6252C53.7327 33.3027 53.9418 32.9642 54.3277 32.7868C54.8101 32.5692 55.4453 32.7224 55.8393 33.1576C56.1529 33.5042 56.3298 34.0121 56.3298 34.5844C56.3298 34.7133 56.2252 34.8181 56.0966 34.8262C55.9679 34.8262 55.8634 34.7214 55.8634 34.5924C55.8634 34.133 55.7267 33.7461 55.4936 33.4801C55.2363 33.1979 54.8262 33.0851 54.5287 33.2221C54.2714 33.335 54.1106 33.601 53.9337 33.8831C53.7729 34.133 53.6121 34.3909 53.3628 34.5844C53.1136 34.7617 52.8241 34.8584 52.5186 34.8584Z" fill="white"/>
<path d="M40.6099 66.2782C40.5376 66.2782 40.4571 66.246 40.4169 66.1734C40.0471 65.6334 40.0792 64.8434 40.4973 64.3437C40.9155 63.8359 41.6793 63.6585 42.2743 63.9245C42.5959 64.0696 42.8291 64.3034 43.0622 64.5291C43.2793 64.7387 43.4803 64.9321 43.7216 65.045C44.1316 65.2223 44.6864 65.1094 45.0723 64.7628C45.4181 64.4485 45.5306 64.0938 45.595 63.6182C45.611 63.5054 45.603 63.3603 45.595 63.2071C45.5789 62.8364 45.5628 62.3688 45.9166 62.0867C46.19 61.8691 46.5598 61.5789 47.0101 61.5466C47.4282 61.5144 47.8463 61.6998 48.2965 62.1028C48.3689 62.1673 48.4413 62.2399 48.5217 62.3043C48.8674 62.6268 49.189 62.9331 49.6152 63.0056C50.1378 63.1024 50.6122 62.6832 50.8212 62.2237C50.9338 61.9658 50.9981 61.6917 51.0624 61.4016C51.1107 61.1839 51.167 60.9502 51.2474 60.7245C51.4564 60.1199 51.7459 59.7411 52.1399 59.5799C52.767 59.3219 53.4987 59.6927 54.1982 60.0474C54.7047 60.3053 55.2274 60.5713 55.6615 60.5713C55.6615 60.5713 55.6615 60.5713 55.6696 60.5713C55.9188 60.5713 56.2485 60.523 56.4495 60.3053C56.6666 60.0635 56.6666 59.7169 56.6666 59.3058C56.6666 59.0076 56.6666 58.7093 56.755 58.4111C56.9641 57.6937 57.4626 57.4518 57.8325 57.3712C58.6847 57.1939 59.6898 57.6937 60.1722 58.2821C60.2526 58.3869 60.2446 58.532 60.1401 58.6126C60.0355 58.6932 59.8908 58.6851 59.8104 58.5803C59.4245 58.1128 58.5802 57.7017 57.9289 57.8388C57.5671 57.9113 57.3259 58.1531 57.2053 58.5481C57.141 58.7738 57.141 59.0317 57.141 59.3058C57.141 59.7733 57.141 60.2489 56.8033 60.6277C56.554 60.9018 56.1681 61.0469 55.6776 61.0469H55.6696C55.1228 61.0469 54.5439 60.7567 53.9891 60.4746C53.354 60.1522 52.759 59.8459 52.3248 60.0232C52.0675 60.128 51.8584 60.4101 51.6976 60.8776C51.6253 61.0791 51.577 61.2887 51.5288 61.5063C51.4564 61.8046 51.3841 62.119 51.2554 62.4172C50.8936 63.2474 50.1137 63.5779 49.5348 63.4731C48.9719 63.3684 48.5619 62.9895 48.2001 62.651C48.1277 62.5865 48.0553 62.5139 47.983 62.4575C47.6372 62.1431 47.3317 62.0061 47.0503 62.0222C46.7689 62.0464 46.5035 62.2318 46.2141 62.4656C46.0613 62.5865 46.0613 62.8283 46.0774 63.191C46.0854 63.3522 46.0935 63.5215 46.0694 63.6827C46.005 64.1744 45.8764 64.6822 45.394 65.1175C44.8713 65.5931 44.1236 65.7382 43.5366 65.4802C43.215 65.3432 42.9738 65.1014 42.7406 64.8676C42.5316 64.6581 42.3306 64.4646 42.0894 64.3598C41.6793 64.1744 41.1486 64.3034 40.8672 64.65C40.5778 64.9966 40.5536 65.5367 40.8109 65.9074C40.8833 66.0122 40.8592 66.1654 40.7466 66.2379C40.7064 66.2621 40.6582 66.2782 40.6099 66.2782Z" fill="white"/>
<path d="M106.446 59.7009C106.325 59.7009 106.221 59.6042 106.213 59.4833C106.164 58.8788 105.706 58.0566 105.103 57.7906C104.765 57.6455 104.428 57.6938 104.106 57.9518C103.921 58.0969 103.776 58.3064 103.616 58.5321C103.35 58.911 103.077 59.306 102.578 59.4188C102.217 59.4994 101.815 59.3946 101.413 59.1125C100.962 58.7981 100.657 58.2258 100.359 57.6777C100.022 57.049 99.708 56.4525 99.2577 56.3477C98.9843 56.2832 98.6547 56.3961 98.2526 56.6863C98.0838 56.8072 97.923 56.9523 97.7541 57.1054C97.521 57.3069 97.2878 57.5246 97.0144 57.6938C96.2425 58.1614 95.4144 57.9921 95.0043 57.5729C94.6023 57.1618 94.4817 56.6137 94.3852 56.1301C94.3691 56.0333 94.345 55.9366 94.3209 55.848C94.2163 55.3885 94.0475 55.0983 93.8063 54.9532C93.5651 54.8081 93.2354 54.8081 92.8655 54.8323C92.6726 54.8404 92.5279 55.0419 92.3349 55.3482C92.2464 55.4852 92.158 55.6303 92.0454 55.7432C91.7158 56.1059 91.3137 56.4525 90.6705 56.5331C89.971 56.6218 89.2715 56.3074 88.9418 55.7593C88.7569 55.461 88.6926 55.1225 88.6363 54.8001C88.58 54.5099 88.5318 54.2358 88.3951 54.0101C88.1619 53.6232 87.6634 53.4217 87.2292 53.5426C86.795 53.6635 86.4654 54.0907 86.4654 54.5421C86.4654 54.6711 86.3608 54.7759 86.2322 54.7759C86.1036 54.7759 85.999 54.6711 85.999 54.5341C86.0071 53.8812 86.4815 53.2524 87.1166 53.0832C87.7438 52.9139 88.4755 53.2041 88.8132 53.7683C88.9901 54.0666 89.0544 54.397 89.1107 54.7195C89.1669 55.0177 89.2152 55.2918 89.3519 55.5175C89.585 55.9044 90.1077 56.1301 90.6223 56.0656C91.0886 56.0092 91.3781 55.7835 91.6997 55.4288C91.7801 55.3401 91.8525 55.2192 91.9409 55.0983C92.1419 54.784 92.3912 54.389 92.8414 54.3648C93.1872 54.3487 93.6615 54.3245 94.0475 54.5502C94.4013 54.7598 94.6425 55.1547 94.7872 55.7432C94.8113 55.8399 94.8274 55.9366 94.8515 56.0414C94.948 56.5009 95.0365 56.9361 95.342 57.2424C95.7199 57.6213 96.3471 57.5568 96.7732 57.2908C97.0144 57.1457 97.2235 56.9603 97.4486 56.7588C97.6174 56.6057 97.7943 56.4525 97.9873 56.3074C98.5099 55.9286 98.9602 55.7915 99.3703 55.8883C100.038 56.0414 100.416 56.7588 100.785 57.452C101.051 57.9518 101.332 58.4757 101.686 58.7256C101.887 58.8707 102.192 59.0238 102.474 58.9594C102.787 58.8868 102.988 58.5966 103.222 58.2661C103.39 58.0243 103.567 57.7744 103.801 57.581C104.387 57.1135 104.926 57.2021 105.28 57.3553C106.076 57.7019 106.615 58.6934 106.671 59.443C106.679 59.572 106.583 59.6848 106.454 59.7009C106.462 59.7009 106.454 59.7009 106.446 59.7009Z" fill="white"/>
<path d="M88.0254 77.5631C87.9691 77.5631 87.9128 77.547 87.8726 77.5067C87.7761 77.418 87.7681 77.2729 87.8485 77.1681L88.6686 76.2331C88.749 76.1444 88.8294 76.0558 88.8616 75.959C88.95 75.7172 88.7088 75.427 88.4515 75.3142C88.0817 75.161 87.6636 75.2094 87.2133 75.2578C87.0364 75.2739 86.8595 75.2981 86.6746 75.3061C85.9108 75.3384 85.0424 74.9676 84.9539 74.218C84.8977 73.7585 85.163 73.2829 85.6695 72.9363C85.8303 72.8235 86.0072 72.7348 86.1761 72.6381C86.3851 72.5252 86.5862 72.4205 86.755 72.2834C87.0043 72.0819 87.2294 71.7272 87.1168 71.429C87.0203 71.1711 86.6987 71.026 86.4173 71.0018C86.1841 70.9857 85.9429 71.0179 85.6856 71.0582C85.5731 71.0743 85.4524 71.0905 85.3318 71.1066C84.8414 71.1549 84.3429 71.1227 83.8604 71.0018C83.2976 70.8567 82.9519 70.5343 82.9277 70.1313C82.9117 69.8169 83.0966 69.559 83.2815 69.3413C83.5308 69.0592 83.8041 68.7932 84.0856 68.5433L84.1097 68.5191C84.3911 68.2773 84.6886 68.0274 84.6886 67.7292C84.6886 67.4793 84.4876 67.2697 84.3589 67.173C83.8363 66.7297 83.0162 66.641 82.4051 66.9634C82.2926 67.0279 82.1478 66.9796 82.0835 66.8667C82.0192 66.7539 82.0674 66.6088 82.18 66.5443C82.9599 66.1251 83.981 66.238 84.6564 66.8103C84.9781 67.0844 85.155 67.4148 85.1469 67.7373C85.1389 68.2531 84.7288 68.5997 84.3991 68.8819L84.375 68.906C84.1017 69.1398 83.8524 69.3897 83.6192 69.6557C83.4986 69.7927 83.378 69.9539 83.386 70.099C83.4021 70.3166 83.6916 70.4698 83.965 70.5423C84.3911 70.6552 84.8253 70.6874 85.2675 70.6391C85.3801 70.631 85.4846 70.6149 85.5972 70.5907C85.8705 70.5504 86.1439 70.5101 86.4334 70.5343C86.956 70.5746 87.3902 70.8648 87.543 71.2678C87.7359 71.7917 87.4224 72.3398 87.0364 72.6542C86.8274 72.8235 86.6022 72.9444 86.3851 73.0572C86.2243 73.1459 86.0716 73.2265 85.9268 73.3232C85.6535 73.5086 85.3801 73.8311 85.4122 74.1615C85.4685 74.6613 86.168 74.8547 86.6424 74.8306C86.8032 74.8225 86.9721 74.8064 87.149 74.7822C87.6314 74.7258 88.138 74.6694 88.6204 74.8709C89.0867 75.0643 89.4807 75.5963 89.2958 76.1122C89.2315 76.2895 89.1109 76.4266 89.0144 76.5394L88.1942 77.4744C88.1621 77.5389 88.0978 77.5631 88.0254 77.5631Z" fill="white"/>
<defs>
<linearGradient id="paint0_linear" x1="64.2731" y1="65.5365" x2="82.5842" y2="65.5365" gradientUnits="userSpaceOnUse">
<stop stop-color="#F2DECB"/>
<stop offset="1" stop-color="#D9CFCD"/>
</linearGradient>
<linearGradient id="paint1_linear" x1="112.833" y1="219.258" x2="123.968" y2="256.17" gradientUnits="userSpaceOnUse">
<stop stop-color="#C9C2C1"/>
<stop offset="1" stop-color="#D9D9D9"/>
</linearGradient>
<linearGradient id="paint2_linear" x1="55.7956" y1="138.627" x2="44.6606" y2="175.539" gradientUnits="userSpaceOnUse">
<stop stop-color="#DFDFDF"/>
<stop offset="1" stop-color="#F7F7F7"/>
</linearGradient>
<linearGradient id="paint3_linear" x1="59.0009" y1="47.9349" x2="84.466" y2="47.9349" gradientUnits="userSpaceOnUse">
<stop stop-color="#F2DECB"/>
<stop offset="1" stop-color="#D9CFCD"/>
</linearGradient>
<linearGradient id="paint4_linear" x1="20.8109" y1="86.2986" x2="31.1879" y2="86.2986" gradientUnits="userSpaceOnUse">
<stop stop-color="#F2DECB"/>
<stop offset="1" stop-color="#D9CFCD"/>
</linearGradient>
<linearGradient id="paint5_linear" x1="114.608" y1="87.382" x2="124.462" y2="87.382" gradientUnits="userSpaceOnUse">
<stop stop-color="#F2DECB"/>
<stop offset="1" stop-color="#D9CFCD"/>
</linearGradient>
</defs>
</svg>
