<svg width="125" height="121" viewBox="0 0 125 121" fill="none" xmlns="http://www.w3.org/2000/svg">
<g clip-path="url(#clip0)">
<path d="M7.59432 38.6141C17.2172 20.8719 45.3488 -7.00639 78.5947 1.61413C111.84 10.2347 127.77 47.4053 124.095 79.1142C121.313 103.114 100.595 125.114 65.0949 119.419C10.5942 110.677 -13.5226 77.4733 7.59432 38.6141Z" fill="#EEEEEE"/>
<path d="M46.168 51.524C46.552 48.908 47.284 46.628 48.364 44.684C49.468 42.74 50.824 41.12 52.432 39.824C54.064 38.528 55.924 37.568 58.012 36.944C60.1 36.296 62.344 35.972 64.744 35.972C67.336 35.972 69.64 36.344 71.656 37.088C73.672 37.808 75.376 38.792 76.768 40.04C78.16 41.288 79.216 42.74 79.936 44.396C80.656 46.028 81.016 47.756 81.016 49.58C81.016 51.236 80.848 52.7 80.512 53.972C80.176 55.22 79.672 56.312 79 57.248C78.352 58.16 77.536 58.94 76.552 59.588C75.592 60.212 74.488 60.74 73.24 61.172C79.048 63.212 81.952 67.172 81.952 73.052C81.952 75.836 81.448 78.26 80.44 80.324C79.432 82.388 78.076 84.104 76.372 85.472C74.692 86.84 72.736 87.872 70.504 88.568C68.272 89.24 65.944 89.576 63.52 89.576C61.024 89.576 58.804 89.312 56.86 88.784C54.916 88.232 53.188 87.392 51.676 86.264C50.164 85.112 48.832 83.648 47.68 81.872C46.552 80.096 45.568 77.984 44.728 75.536L49.696 73.52C50.992 73.016 52.192 72.884 53.296 73.124C54.4 73.364 55.192 73.916 55.672 74.78C56.752 76.772 57.892 78.224 59.092 79.136C60.316 80.024 61.744 80.468 63.376 80.468C64.624 80.468 65.704 80.264 66.616 79.856C67.552 79.424 68.32 78.884 68.92 78.236C69.544 77.564 70.012 76.808 70.324 75.968C70.636 75.128 70.792 74.276 70.792 73.412C70.792 72.284 70.708 71.276 70.54 70.388C70.396 69.476 69.964 68.696 69.244 68.048C68.524 67.4 67.432 66.908 65.968 66.572C64.528 66.212 62.512 66.032 59.92 66.032V58.328C62.104 58.328 63.868 58.16 65.212 57.824C66.556 57.488 67.588 57.032 68.308 56.456C69.052 55.856 69.544 55.136 69.784 54.296C70.024 53.456 70.144 52.532 70.144 51.524C70.144 49.46 69.64 47.876 68.632 46.772C67.648 45.644 66.136 45.08 64.096 45.08C62.44 45.08 61.036 45.524 59.884 46.412C58.756 47.276 57.976 48.356 57.544 49.652C57.04 50.972 56.38 51.848 55.564 52.28C54.748 52.712 53.584 52.808 52.072 52.568L46.168 51.524Z" fill="#CCA146"/>
<path d="M42.168 49.524C42.552 46.908 43.284 44.628 44.364 42.684C45.468 40.74 46.824 39.12 48.432 37.824C50.064 36.528 51.924 35.568 54.012 34.944C56.1 34.296 58.344 33.972 60.744 33.972C63.336 33.972 65.64 34.344 67.656 35.088C69.672 35.808 71.376 36.792 72.768 38.04C74.16 39.288 75.216 40.74 75.936 42.396C76.656 44.028 77.016 45.756 77.016 47.58C77.016 49.236 76.848 50.7 76.512 51.972C76.176 53.22 75.672 54.312 75 55.248C74.352 56.16 73.536 56.94 72.552 57.588C71.592 58.212 70.488 58.74 69.24 59.172C75.048 61.212 77.952 65.172 77.952 71.052C77.952 73.836 77.448 76.26 76.44 78.324C75.432 80.388 74.076 82.104 72.372 83.472C70.692 84.84 68.736 85.872 66.504 86.568C64.272 87.24 61.944 87.576 59.52 87.576C57.024 87.576 54.804 87.312 52.86 86.784C50.916 86.232 49.188 85.392 47.676 84.264C46.164 83.112 44.832 81.648 43.68 79.872C42.552 78.096 41.568 75.984 40.728 73.536L45.696 71.52C46.992 71.016 48.192 70.884 49.296 71.124C50.4 71.364 51.192 71.916 51.672 72.78C52.752 74.772 53.892 76.224 55.092 77.136C56.316 78.024 57.744 78.468 59.376 78.468C60.624 78.468 61.704 78.264 62.616 77.856C63.552 77.424 64.32 76.884 64.92 76.236C65.544 75.564 66.012 74.808 66.324 73.968C66.636 73.128 66.792 72.276 66.792 71.412C66.792 70.284 66.708 69.276 66.54 68.388C66.396 67.476 65.964 66.696 65.244 66.048C64.524 65.4 63.432 64.908 61.968 64.572C60.528 64.212 58.512 64.032 55.92 64.032V56.328C58.104 56.328 59.868 56.16 61.212 55.824C62.556 55.488 63.588 55.032 64.308 54.456C65.052 53.856 65.544 53.136 65.784 52.296C66.024 51.456 66.144 50.532 66.144 49.524C66.144 47.46 65.64 45.876 64.632 44.772C63.648 43.644 62.136 43.08 60.096 43.08C58.44 43.08 57.036 43.524 55.884 44.412C54.756 45.276 53.976 46.356 53.544 47.652C53.04 48.972 52.38 49.848 51.564 50.28C50.748 50.712 49.584 50.808 48.072 50.568L42.168 49.524Z" fill="#F6C969"/>
<path d="M42.168 49.524L41.4754 49.4223L41.3767 50.0949L42.0461 50.2133L42.168 49.524ZM44.364 42.684L43.7553 42.3383L43.7521 42.344L44.364 42.684ZM48.432 37.824L47.9967 37.2758L47.9927 37.279L48.432 37.824ZM54.012 34.944L54.2124 35.6147L54.2195 35.6125L54.012 34.944ZM67.656 35.088L67.4136 35.7447L67.4206 35.7472L67.656 35.088ZM72.768 38.04L72.3007 38.5612V38.5612L72.768 38.04ZM75.936 42.396L75.294 42.6751L75.2956 42.6785L75.936 42.396ZM76.512 51.972L77.1879 52.154L77.1888 52.1508L76.512 51.972ZM75 55.248L74.4314 54.8397L74.4294 54.8426L75 55.248ZM72.552 57.588L72.9335 58.1749L72.937 58.1726L72.552 57.588ZM69.24 59.172L69.011 58.5105L67.114 59.1672L69.008 59.8324L69.24 59.172ZM76.44 78.324L77.069 78.6312L76.44 78.324ZM72.372 83.472L71.9338 82.9261L71.93 82.9292L72.372 83.472ZM66.504 86.568L66.7058 87.2383L66.7124 87.2363L66.504 86.568ZM52.86 86.784L52.6688 87.4574L52.6765 87.4595L52.86 86.784ZM47.676 84.264L47.2517 84.8208L47.2574 84.8251L47.676 84.264ZM43.68 79.872L43.0891 80.2473L43.0927 80.2529L43.68 79.872ZM40.728 73.536L40.4648 72.8874L39.8509 73.1365L40.0659 73.7632L40.728 73.536ZM45.696 71.52L45.4423 70.8675L45.4328 70.8714L45.696 71.52ZM49.296 71.124L49.1473 71.808L49.296 71.124ZM51.672 72.78L52.2874 72.4463L52.2839 72.44L51.672 72.78ZM55.092 77.136L54.6684 77.6933L54.6746 77.698L54.6809 77.7026L55.092 77.136ZM62.616 77.856L62.9019 78.495L62.9093 78.4916L62.616 77.856ZM64.92 76.236L64.407 75.7597L64.4064 75.7604L64.92 76.236ZM66.324 73.968L66.9802 74.2117L66.324 73.968ZM66.54 68.388L65.8486 68.4972L65.8502 68.5077L65.8522 68.5181L66.54 68.388ZM65.244 66.048L64.7757 66.5683L65.244 66.048ZM61.968 64.572L61.7982 65.2512L61.8114 65.2543L61.968 64.572ZM55.92 64.032H55.22V64.732H55.92V64.032ZM55.92 56.328V55.628H55.22V56.328H55.92ZM64.308 54.456L64.7453 55.0026L64.7474 55.0009L64.308 54.456ZM64.632 44.772L64.1045 45.2322L64.1097 45.2381L64.1151 45.244L64.632 44.772ZM55.884 44.412L56.3097 44.9677L56.3114 44.9664L55.884 44.412ZM53.544 47.652L54.198 47.9017L54.2033 47.8876L54.2081 47.8734L53.544 47.652ZM51.564 50.28L51.2365 49.6613L51.564 50.28ZM48.072 50.568L47.9501 51.2574L47.9623 51.2593L48.072 50.568ZM42.8606 49.6257C43.2346 47.0779 43.9439 44.8815 44.9759 43.0239L43.7521 42.344C42.6241 44.3745 41.8694 46.7381 41.4754 49.4223L42.8606 49.6257ZM44.9727 43.0297C46.0369 41.1558 47.3372 39.6054 48.8713 38.369L47.9927 37.279C46.3108 38.6346 44.8991 40.3242 43.7553 42.3383L44.9727 43.0297ZM48.8673 38.3722C50.4264 37.1341 52.2058 36.2144 54.2124 35.6147L53.8116 34.2733C51.6422 34.9216 49.7016 35.9219 47.9967 37.2758L48.8673 38.3722ZM54.2195 35.6125C56.2341 34.9873 58.4075 34.672 60.744 34.672V33.272C58.2805 33.272 55.9659 33.6047 53.8045 34.2755L54.2195 35.6125ZM60.744 34.672C63.2699 34.672 65.4894 35.0346 67.4136 35.7447L67.8984 34.4313C65.7906 33.6534 63.4021 33.272 60.744 33.272V34.672ZM67.4206 35.7472C69.3634 36.4411 70.9854 37.382 72.3007 38.5612L73.2353 37.5188C71.7666 36.202 69.9806 35.1749 67.8914 34.4288L67.4206 35.7472ZM72.3007 38.5612C73.6205 39.7444 74.6156 41.1147 75.2941 42.6751L76.5779 42.1169C75.8164 40.3653 74.6995 38.8316 73.2353 37.5188L72.3007 38.5612ZM75.2956 42.6785C75.9754 44.2195 76.316 45.851 76.316 47.58H77.716C77.716 45.661 77.3366 43.8365 76.5764 42.1134L75.2956 42.6785ZM76.316 47.58C76.316 49.1905 76.1524 50.5923 75.8352 51.7932L77.1888 52.1508C77.5436 50.8077 77.716 49.2815 77.716 47.58H76.316ZM75.8361 51.79C75.5193 52.9666 75.0487 53.9799 74.4314 54.8398L75.5686 55.6562C76.2953 54.6441 76.8327 53.4734 77.1879 52.154L75.8361 51.79ZM74.4294 54.8426C73.8343 55.6801 73.0825 56.4005 72.167 57.0034L72.937 58.1726C73.9895 57.4795 74.8698 56.6399 75.5706 55.6534L74.4294 54.8426ZM72.1705 57.0011C71.2648 57.5898 70.2134 58.0943 69.011 58.5105L69.469 59.8335C70.7626 59.3857 71.9193 58.8342 72.9335 58.1749L72.1705 57.0011ZM69.008 59.8324C71.8128 60.8176 73.8599 62.2456 75.2095 64.086C76.5572 65.9237 77.252 68.2307 77.252 71.052H78.652C78.652 67.9933 77.8948 65.3803 76.3385 63.258C74.7841 61.1384 72.4752 59.5664 69.472 58.5116L69.008 59.8324ZM77.252 71.052C77.252 73.7518 76.7634 76.0666 75.811 78.0168L77.069 78.6312C78.1326 76.4534 78.652 73.9202 78.652 71.052H77.252ZM75.811 78.0168C74.8459 79.993 73.5533 81.626 71.9338 82.9261L72.8102 84.0179C74.5987 82.582 76.0181 80.783 77.069 78.6312L75.811 78.0168ZM71.93 82.9292C70.3245 84.2365 68.4493 85.2282 66.2956 85.8997L66.7124 87.2363C69.0227 86.5158 71.0595 85.4435 72.814 84.0148L71.93 82.9292ZM66.3022 85.8977C64.1382 86.5492 61.8784 86.876 59.52 86.876V88.276C62.0096 88.276 64.4058 87.9308 66.7058 87.2383L66.3022 85.8977ZM59.52 86.876C57.0718 86.876 54.9154 86.6169 53.0435 86.1085L52.6765 87.4595C54.6926 88.0071 56.9762 88.276 59.52 88.276V86.876ZM53.0512 86.1106C51.1833 85.5802 49.5335 84.7764 48.0946 83.7029L47.2574 84.8251C48.8425 86.0076 50.6487 86.8838 52.6688 87.4574L53.0512 86.1106ZM48.1002 83.7072C46.6591 82.6092 45.3804 81.2071 44.2673 79.4911L43.0927 80.2529C44.2836 82.0889 45.6689 83.6148 47.2518 84.8208L48.1002 83.7072ZM44.2709 79.4967C43.1782 77.7763 42.2162 75.7162 41.3901 73.3088L40.0659 73.7632C40.9198 76.2518 41.9258 78.4157 43.0891 80.2473L44.2709 79.4967ZM40.9912 74.1846L45.9592 72.1686L45.4328 70.8714L40.4648 72.8874L40.9912 74.1846ZM45.9497 72.1724C47.1473 71.7067 48.2058 71.6033 49.1473 71.808L49.4447 70.44C48.1782 70.1647 46.8367 70.3253 45.4423 70.8676L45.9497 72.1724ZM49.1473 71.808C50.0858 72.0121 50.6924 72.458 51.0601 73.1199L52.2839 72.44C51.6916 71.374 50.7142 70.7159 49.4447 70.44L49.1473 71.808ZM51.0566 73.1136C52.1623 75.153 53.3598 76.6987 54.6684 77.6933L55.5156 76.5787C54.4242 75.7493 53.3417 74.391 52.2874 72.4464L51.0566 73.1136ZM54.6809 77.7026C56.0341 78.6843 57.6087 79.168 59.376 79.168V77.768C57.8793 77.768 56.5979 77.3637 55.5031 76.5694L54.6809 77.7026ZM59.376 79.168C60.6987 79.168 61.8805 78.9519 62.9019 78.495L62.3301 77.217C61.5275 77.5761 60.5493 77.768 59.376 77.768V79.168ZM62.9093 78.4916C63.9148 78.0275 64.7619 77.4371 65.4336 76.7116L64.4064 75.7604C63.8781 76.3309 63.1892 76.8205 62.3227 77.2204L62.9093 78.4916ZM65.433 76.7123C66.118 75.9746 66.6354 75.14 66.9802 74.2117L65.6678 73.7243C65.3886 74.476 64.97 75.1534 64.407 75.7597L65.433 76.7123ZM66.9802 74.2117C67.3201 73.2967 67.492 72.3623 67.492 71.412H66.092C66.092 72.1897 65.9519 72.9593 65.6678 73.7243L66.9802 74.2117ZM67.492 71.412C67.492 70.2506 67.4056 69.1978 67.2278 68.2579L65.8522 68.5181C66.0104 69.3542 66.092 70.3174 66.092 71.412H67.492ZM67.2314 68.2788C67.0611 67.2 66.5453 66.2774 65.7123 65.5277L64.7757 66.5683C65.3827 67.1146 65.7309 67.752 65.8486 68.4972L67.2314 68.2788ZM65.7123 65.5277C64.8681 64.7679 63.6464 64.239 62.1246 63.8897L61.8114 65.2543C63.2176 65.577 64.1799 66.0321 64.7757 66.5683L65.7123 65.5277ZM62.1378 63.8929C60.6159 63.5124 58.5335 63.332 55.92 63.332V64.732C58.4905 64.732 60.4401 64.9116 61.7982 65.2511L62.1378 63.8929ZM56.62 64.032V56.328H55.22V64.032H56.62ZM55.92 57.028C58.1324 57.028 59.9599 56.8586 61.3818 56.5031L61.0422 55.1449C59.7761 55.4614 58.0756 55.628 55.92 55.628V57.028ZM61.3818 56.5031C62.7788 56.1538 63.9173 55.665 64.7453 55.0026L63.8707 53.9094C63.2587 54.399 62.3332 54.8222 61.0422 55.1449L61.3818 56.5031ZM64.7474 55.0009C65.5927 54.3192 66.1737 53.4802 66.4571 52.4883L65.1109 52.1037C64.9143 52.7918 64.5113 53.3928 63.8686 53.9111L64.7474 55.0009ZM66.4571 52.4883C66.7174 51.577 66.844 50.5873 66.844 49.524H65.444C65.444 50.4767 65.3306 51.335 65.1109 52.1037L66.4571 52.4883ZM66.844 49.524C66.844 47.3522 66.3131 45.5751 65.1489 44.3L64.1151 45.244C64.9669 46.1769 65.444 47.5677 65.444 49.524H66.844ZM65.1595 44.3118C63.9992 42.9818 62.2613 42.38 60.096 42.38V43.78C62.0107 43.78 63.2968 44.3062 64.1045 45.2322L65.1595 44.3118ZM60.096 42.38C58.3078 42.38 56.7478 42.8623 55.4566 43.8576L56.3114 44.9664C57.3242 44.1857 58.5722 43.78 60.096 43.78V42.38ZM55.4583 43.8563C54.224 44.8018 53.358 45.9963 52.8799 47.4306L54.2081 47.8734C54.594 46.7157 55.288 45.7502 56.3097 44.9677L55.4583 43.8563ZM52.89 47.4023C52.4157 48.6446 51.8406 49.3415 51.2365 49.6613L51.8915 50.8986C52.9194 50.3545 53.6643 49.2993 54.198 47.9017L52.89 47.4023ZM51.2365 49.6613C50.6173 49.9892 49.6339 50.1072 48.1817 49.8767L47.9623 51.2593C49.5341 51.5088 50.8787 51.4348 51.8915 50.8986L51.2365 49.6613ZM48.1939 49.8787L42.2899 48.8347L42.0461 50.2133L47.9501 51.2573L48.1939 49.8787Z" fill="#065D63"/>
</g>
<defs>
<clipPath id="clip0">
<rect width="124.613" height="120.328" fill="white"/>
</clipPath>
</defs>
</svg>
