<svg width="122" height="117" viewBox="0 0 122 117" fill="none" xmlns="http://www.w3.org/2000/svg">
<path d="M112.317 83.9207C102.694 101.663 85.5059 123.022 52.2601 114.401C19.0142 105.781 -2.36123 77.1295 1.31418 45.4207C3.92219 22.9207 34.182 1.18916 75.8144 0.420658C117.48 -0.347839 133.434 45.0615 112.317 83.9207Z" fill="#EEEEEE"/>
<path d="M65.5952 66.8364V53.1564C65.5952 52.3164 65.6192 51.4164 65.6672 50.4564C65.7392 49.4724 65.8352 48.4524 65.9552 47.3964L52.0952 66.8364H65.5952ZM80.7152 66.8364V73.1004C80.7152 73.6524 80.5232 74.1324 80.1392 74.5404C79.7792 74.9484 79.2512 75.1524 78.5552 75.1524H75.3152V87.2124H65.5952V75.1524H44.4992C43.8032 75.1524 43.1672 74.9364 42.5912 74.5044C42.0392 74.0724 41.6912 73.5324 41.5472 72.8844L40.3952 67.3764L64.6592 34.7604H75.3152V66.8364H80.7152Z" fill="#CCA146"/>
<path d="M61.6098 64.9458V51.2658C61.6098 50.4258 61.6338 49.5258 61.6818 48.5658C61.7538 47.5818 61.8498 46.5618 61.9698 45.5058L48.1098 64.9458H61.6098ZM76.7298 64.9458V71.2098C76.7298 71.7618 76.5378 72.2418 76.1538 72.6498C75.7938 73.0578 75.2658 73.2618 74.5698 73.2618H71.3298V85.3218H61.6098V73.2618H40.5138C39.8178 73.2618 39.1818 73.0458 38.6058 72.6138C38.0538 72.1818 37.7058 71.6418 37.5618 70.9938L36.4098 65.4858L60.6738 32.8698H71.3298V64.9458H76.7298Z" fill="#F6C969"/>
<path d="M61.6098 64.9458V65.6458H62.3098V64.9458H61.6098ZM61.6818 48.5658L60.9837 48.5147L60.9831 48.5228L60.9827 48.5308L61.6818 48.5658ZM61.9698 45.5058L62.6654 45.5848L62.9709 42.8958L61.3999 45.0994L61.9698 45.5058ZM48.1098 64.9458L47.5399 64.5394L46.7511 65.6458H48.1098V64.9458ZM76.7298 64.9458H77.4298V64.2458H76.7298V64.9458ZM76.1538 72.6498L75.6441 72.17L75.6364 72.1782L75.629 72.1866L76.1538 72.6498ZM71.3298 73.2618V72.5618H70.6298V73.2618H71.3298ZM71.3298 85.3218V86.0218H72.0298V85.3218H71.3298ZM61.6098 85.3218H60.9098V86.0218H61.6098V85.3218ZM61.6098 73.2618H62.3098V72.5618H61.6098V73.2618ZM38.6058 72.6138L38.1744 73.165L38.1801 73.1695L38.1858 73.1738L38.6058 72.6138ZM37.5618 70.9938L36.8766 71.1371L36.8785 71.1456L37.5618 70.9938ZM36.4098 65.4858L35.8482 65.068L35.6602 65.3207L35.7247 65.6291L36.4098 65.4858ZM60.6738 32.8698V32.1698H60.3221L60.1122 32.452L60.6738 32.8698ZM71.3298 32.8698H72.0298V32.1698H71.3298V32.8698ZM71.3298 64.9458H70.6298V65.6458H71.3298V64.9458ZM62.3098 64.9458V51.2658H60.9098V64.9458H62.3098ZM62.3098 51.2658C62.3098 50.4389 62.3335 49.5507 62.381 48.6007L60.9827 48.5308C60.9342 49.5008 60.9098 50.4126 60.9098 51.2658H62.3098ZM62.38 48.6169C62.4512 47.6429 62.5463 46.6322 62.6654 45.5848L61.2743 45.4267C61.1533 46.4913 61.0564 47.5207 60.9837 48.5147L62.38 48.6169ZM61.3999 45.0994L47.5399 64.5394L48.6798 65.3521L62.5398 45.9121L61.3999 45.0994ZM48.1098 65.6458H61.6098V64.2458H48.1098V65.6458ZM76.0298 64.9458V71.2098H77.4298V64.9458H76.0298ZM76.0298 71.2098C76.0298 71.5805 75.9079 71.8897 75.6441 72.17L76.6636 73.1295C77.1678 72.5938 77.4298 71.943 77.4298 71.2098H76.0298ZM75.629 72.1866C75.4369 72.4043 75.125 72.5618 74.5698 72.5618V73.9618C75.4067 73.9618 76.1508 73.7113 76.6787 73.1129L75.629 72.1866ZM74.5698 72.5618H71.3298V73.9618H74.5698V72.5618ZM70.6298 73.2618V85.3218H72.0298V73.2618H70.6298ZM71.3298 84.6218H61.6098V86.0218H71.3298V84.6218ZM62.3098 85.3218V73.2618H60.9098V85.3218H62.3098ZM61.6098 72.5618H40.5138V73.9618H61.6098V72.5618ZM40.5138 72.5618C39.9748 72.5618 39.4852 72.3983 39.0258 72.0538L38.1858 73.1738C38.8785 73.6933 39.6609 73.9618 40.5138 73.9618V72.5618ZM39.0373 72.0625C38.6052 71.7244 38.3519 71.3223 38.2452 70.8419L36.8785 71.1456C37.0598 71.9612 37.5024 72.6391 38.1744 73.165L39.0373 72.0625ZM38.247 70.8505L37.095 65.3425L35.7247 65.6291L36.8767 71.1371L38.247 70.8505ZM36.9715 65.9036L61.2355 33.2876L60.1122 32.452L35.8482 65.068L36.9715 65.9036ZM60.6738 33.5698H71.3298V32.1698H60.6738V33.5698ZM70.6298 32.8698V64.9458H72.0298V32.8698H70.6298ZM71.3298 65.6458H76.7298V64.2458H71.3298V65.6458Z" fill="#065D63"/>
</svg>
