<svg width="121" height="116" viewBox="0 0 121 116" fill="none" xmlns="http://www.w3.org/2000/svg">
<path d="M9.30322 32.4539C18.9261 14.7116 36.1142 -6.64708 69.3601 1.97344C102.606 10.594 123.981 39.245 120.306 70.9539C117.698 93.4539 87.4381 115.185 45.8057 115.954C4.13981 116.722 -11.8137 71.313 9.30322 32.4539Z" fill="#EEEEEE"/>
<path d="M55.7897 54.9696C56.7737 54.7776 57.7217 54.6456 58.6337 54.5736C59.5457 54.5016 60.4337 54.4656 61.2977 54.4656C64.0577 54.4656 66.4937 54.8856 68.6057 55.7256C70.7177 56.5656 72.4937 57.7176 73.9337 59.1816C75.3737 60.6216 76.4537 62.3256 77.1737 64.2936C77.9177 66.2376 78.2897 68.3256 78.2897 70.5576C78.2897 73.3656 77.7857 75.9336 76.7777 78.2616C75.7937 80.5656 74.4137 82.5576 72.6377 84.2376C70.8617 85.9176 68.7377 87.2256 66.2657 88.1616C63.8177 89.0736 61.1297 89.5296 58.2017 89.5296C56.4977 89.5296 54.8657 89.3496 53.3057 88.9896C51.7697 88.6296 50.3177 88.1496 48.9497 87.5496C47.6057 86.9256 46.3577 86.2176 45.2057 85.4256C44.0537 84.6096 43.0097 83.7456 42.0737 82.8336L45.5297 78.2256C45.8897 77.7456 46.3097 77.3856 46.7897 77.1456C47.2697 76.8816 47.7857 76.7496 48.3377 76.7496C49.0577 76.7496 49.7297 76.9536 50.3537 77.3616C51.0017 77.7456 51.6977 78.1776 52.4417 78.6576C53.2097 79.1136 54.0977 79.5336 55.1057 79.9176C56.1137 80.3016 57.3617 80.4936 58.8497 80.4936C60.3377 80.4936 61.6097 80.2536 62.6657 79.7736C63.7217 79.2696 64.5737 78.5976 65.2217 77.7576C65.8937 76.8936 66.3737 75.8976 66.6617 74.7696C66.9737 73.6176 67.1297 72.3936 67.1297 71.0976C67.1297 68.5536 66.4097 66.6216 64.9697 65.3016C63.5297 63.9576 61.4897 63.2856 58.8497 63.2856C56.4977 63.2856 54.1937 63.7296 51.9377 64.6176L45.0257 62.7456L49.4897 36.5016H76.3457V41.1096C76.3457 41.8776 76.2257 42.5736 75.9857 43.1976C75.7457 43.8216 75.3617 44.3736 74.8337 44.8536C74.3297 45.3096 73.6577 45.6696 72.8177 45.9336C71.9777 46.1736 70.9697 46.2936 69.7937 46.2936H57.2657L55.7897 54.9696Z" fill="#CCA146"/>
<path d="M51.7897 52.9696C52.7737 52.7776 53.7217 52.6456 54.6337 52.5736C55.5457 52.5016 56.4337 52.4656 57.2977 52.4656C60.0577 52.4656 62.4937 52.8856 64.6057 53.7256C66.7177 54.5656 68.4937 55.7176 69.9337 57.1816C71.3737 58.6216 72.4537 60.3256 73.1737 62.2936C73.9177 64.2376 74.2897 66.3256 74.2897 68.5576C74.2897 71.3656 73.7857 73.9336 72.7777 76.2616C71.7937 78.5656 70.4137 80.5576 68.6377 82.2376C66.8617 83.9176 64.7377 85.2256 62.2657 86.1616C59.8177 87.0736 57.1297 87.5296 54.2017 87.5296C52.4977 87.5296 50.8657 87.3496 49.3057 86.9896C47.7697 86.6296 46.3177 86.1496 44.9497 85.5496C43.6057 84.9256 42.3577 84.2176 41.2057 83.4256C40.0537 82.6096 39.0097 81.7456 38.0737 80.8336L41.5297 76.2256C41.8897 75.7456 42.3097 75.3856 42.7897 75.1456C43.2697 74.8816 43.7857 74.7496 44.3377 74.7496C45.0577 74.7496 45.7297 74.9536 46.3537 75.3616C47.0017 75.7456 47.6977 76.1776 48.4417 76.6576C49.2097 77.1136 50.0977 77.5336 51.1057 77.9176C52.1137 78.3016 53.3617 78.4936 54.8497 78.4936C56.3377 78.4936 57.6097 78.2536 58.6657 77.7736C59.7217 77.2696 60.5737 76.5976 61.2217 75.7576C61.8937 74.8936 62.3737 73.8976 62.6617 72.7696C62.9737 71.6176 63.1297 70.3936 63.1297 69.0976C63.1297 66.5536 62.4097 64.6216 60.9697 63.3016C59.5297 61.9576 57.4897 61.2856 54.8497 61.2856C52.4977 61.2856 50.1937 61.7296 47.9377 62.6176L41.0257 60.7456L45.4897 34.5016H72.3457V39.1096C72.3457 39.8776 72.2257 40.5736 71.9857 41.1976C71.7457 41.8216 71.3617 42.3736 70.8337 42.8536C70.3297 43.3096 69.6577 43.6696 68.8177 43.9336C67.9777 44.1736 66.9697 44.2936 65.7937 44.2936H53.2657L51.7897 52.9696Z" fill="#F6C969"/>
<path d="M51.7897 52.9696L51.0996 52.8522L50.9297 53.8506L51.9237 53.6567L51.7897 52.9696ZM54.6337 52.5736L54.5786 51.8758L54.6337 52.5736ZM64.6057 53.7256L64.347 54.3761L64.6057 53.7256ZM69.9337 57.1816L69.4346 57.6725L69.4387 57.6766L69.9337 57.1816ZM73.1737 62.2936L72.5162 62.5341L72.5199 62.5438L73.1737 62.2936ZM72.7777 76.2616L72.1353 75.9835L72.1339 75.9867L72.7777 76.2616ZM68.6377 82.2376L68.1566 81.7291L68.6377 82.2376ZM62.2657 86.1616L62.51 86.8176L62.5135 86.8163L62.2657 86.1616ZM49.3057 86.9896L49.1459 87.6712L49.1483 87.6717L49.3057 86.9896ZM44.9497 85.5496L44.6549 86.1845L44.6617 86.1877L44.6685 86.1907L44.9497 85.5496ZM41.2057 83.4256L40.801 83.9969L40.8091 84.0024L41.2057 83.4256ZM38.0737 80.8336L37.5137 80.4136L37.1446 80.9057L37.5852 81.335L38.0737 80.8336ZM41.5297 76.2256L42.0897 76.6456L41.5297 76.2256ZM42.7897 75.1456L43.1027 75.7717L43.115 75.7656L43.127 75.759L42.7897 75.1456ZM46.3537 75.3616L45.9706 75.9475L45.9835 75.9559L45.9968 75.9638L46.3537 75.3616ZM48.4417 76.6576L48.0622 77.2458L48.0731 77.2529L48.0843 77.2595L48.4417 76.6576ZM58.6657 77.7736L58.9554 78.411L58.9672 78.4053L58.6657 77.7736ZM61.2217 75.7576L60.6691 75.3279L60.6674 75.3301L61.2217 75.7576ZM62.6617 72.7696L61.9859 72.5866L61.9834 72.5964L62.6617 72.7696ZM60.9697 63.3016L60.492 63.8134L60.4967 63.8176L60.9697 63.3016ZM47.9377 62.6176L47.7547 63.2933L47.9784 63.3539L48.194 63.269L47.9377 62.6176ZM41.0257 60.7456L40.3356 60.6282L40.229 61.2551L40.8427 61.4213L41.0257 60.7456ZM45.4897 34.5016V33.8016H44.8987L44.7996 34.3842L45.4897 34.5016ZM72.3457 34.5016H73.0457V33.8016H72.3457V34.5016ZM71.9857 41.1976L71.3323 40.9463V40.9463L71.9857 41.1976ZM70.8337 42.8536L71.3033 43.3727L71.3045 43.3716L70.8337 42.8536ZM68.8177 43.9336L69.01 44.6067L69.0188 44.6042L69.0275 44.6014L68.8177 43.9336ZM53.2657 44.2936V43.5936H52.6747L52.5756 44.1762L53.2657 44.2936ZM51.9237 53.6567C52.8841 53.4693 53.8056 53.3412 54.6888 53.2714L54.5786 51.8758C53.6377 51.9501 52.6633 52.086 51.6556 52.2826L51.9237 53.6567ZM54.6888 53.2714C55.5835 53.2008 56.4531 53.1656 57.2977 53.1656V51.7656C56.4142 51.7656 55.5078 51.8024 54.5786 51.8758L54.6888 53.2714ZM57.2977 53.1656C59.9875 53.1656 62.3329 53.575 64.347 54.3761L64.8644 53.0752C62.6545 52.1962 60.1278 51.7656 57.2977 51.7656V53.1656ZM64.347 54.3761C66.3783 55.184 68.0697 56.2849 69.4346 57.6725L70.4327 56.6907C68.9176 55.1504 67.057 53.9472 64.8644 53.0752L64.347 54.3761ZM69.4387 57.6766C70.8046 59.0425 71.8302 60.6589 72.5163 62.5341L73.8311 62.0531C73.0771 59.9923 71.9428 58.2008 70.4286 56.6866L69.4387 57.6766ZM72.5199 62.5438C73.2312 64.4023 73.5897 66.4049 73.5897 68.5576H74.9897C74.9897 66.2463 74.6041 64.0729 73.8274 62.0434L72.5199 62.5438ZM73.5897 68.5576C73.5897 71.2802 73.1014 73.7522 72.1353 75.9835L73.42 76.5398C74.4699 74.115 74.9897 71.451 74.9897 68.5576H73.5897ZM72.1339 75.9867C71.1866 78.2047 69.8612 80.1166 68.1566 81.7291L69.1187 82.7461C70.9661 80.9986 72.4007 78.9265 73.4214 76.5365L72.1339 75.9867ZM68.1566 81.7291C66.4532 83.3404 64.4103 84.6011 62.0178 85.507L62.5135 86.8163C65.0651 85.8501 67.2701 84.4948 69.1187 82.7461L68.1566 81.7291ZM62.0213 85.5057C59.6603 86.3852 57.0562 86.8296 54.2017 86.8296V88.2296C57.2031 88.2296 59.975 87.762 62.51 86.8176L62.0213 85.5057ZM54.2017 86.8296C52.5473 86.8296 50.9682 86.6549 49.4631 86.3075L49.1483 87.6717C50.7631 88.0443 52.4481 88.2296 54.2017 88.2296V86.8296ZM49.4654 86.3081C47.9687 85.9573 46.5576 85.4905 45.2308 84.9086L44.6685 86.1907C46.0778 86.8088 47.5706 87.3019 49.1459 87.6711L49.4654 86.3081ZM45.2444 84.9147C43.9338 84.3062 42.7201 83.6173 41.6022 82.8488L40.8091 84.0024C41.9952 84.8179 43.2775 85.545 44.6549 86.1845L45.2444 84.9147ZM41.6103 82.8544C40.4857 82.0578 39.4701 81.2169 38.5622 80.3323L37.5852 81.335C38.5492 82.2743 39.6217 83.1614 40.8011 83.9968L41.6103 82.8544ZM38.6337 81.2536L42.0897 76.6456L40.9697 75.8056L37.5137 80.4136L38.6337 81.2536ZM42.0897 76.6456C42.3922 76.2422 42.7309 75.9576 43.1027 75.7717L42.4766 74.5195C41.8884 74.8136 41.3871 75.2491 40.9697 75.8056L42.0897 76.6456ZM43.127 75.759C43.5028 75.5523 43.9027 75.4496 44.3377 75.4496V74.0496C43.6687 74.0496 43.0365 74.211 42.4523 74.5323L43.127 75.759ZM44.3377 75.4496C44.9166 75.4496 45.4562 75.6112 45.9706 75.9475L46.7367 74.7757C46.0031 74.2961 45.1987 74.0496 44.3377 74.0496V75.4496ZM45.9968 75.9638C46.636 76.3426 47.3244 76.7698 48.0622 77.2458L48.8212 76.0694C48.071 75.5854 47.3673 75.1486 46.7105 74.7594L45.9968 75.9638ZM48.0843 77.2595C48.893 77.7397 49.8184 78.1763 50.8565 78.5718L51.3549 77.2635C50.3769 76.8909 49.5263 76.4875 48.799 76.0557L48.0843 77.2595ZM50.8565 78.5718C51.968 78.9952 53.3066 79.1936 54.8497 79.1936V77.7936C53.4168 77.7936 52.2593 77.608 51.3549 77.2635L50.8565 78.5718ZM54.8497 79.1936C56.4104 79.1936 57.7865 78.9422 58.9553 78.4109L58.376 77.1364C57.4328 77.5651 56.2649 77.7936 54.8497 77.7936V79.1936ZM58.9672 78.4053C60.1119 77.859 61.0542 77.1208 61.7759 76.1852L60.6674 75.3301C60.0932 76.0745 59.3314 76.6802 58.3642 77.1419L58.9672 78.4053ZM61.7742 76.1874C62.509 75.2426 63.0296 74.158 63.3399 72.9428L61.9834 72.5964C61.7177 73.6372 61.2783 74.5446 60.6691 75.3279L61.7742 76.1874ZM63.3373 72.9526C63.6668 71.7361 63.8297 70.4502 63.8297 69.0976H62.4297C62.4297 70.3371 62.2805 71.4991 61.986 72.5866L63.3373 72.9526ZM63.8297 69.0976C63.8297 66.4201 63.0678 64.2753 61.4427 62.7856L60.4967 63.8176C61.7515 64.9679 62.4297 66.6872 62.4297 69.0976H63.8297ZM61.4473 62.7899C59.8388 61.2886 57.6054 60.5856 54.8497 60.5856V61.9856C57.3739 61.9856 59.2206 62.6266 60.492 63.8134L61.4473 62.7899ZM54.8497 60.5856C52.4072 60.5856 50.0164 61.0471 47.6813 61.9663L48.194 63.269C50.371 62.4121 52.5881 61.9856 54.8497 61.9856V60.5856ZM48.1207 61.942L41.2087 60.07L40.8427 61.4213L47.7547 63.2933L48.1207 61.942ZM41.7158 60.863L46.1798 34.619L44.7996 34.3842L40.3356 60.6282L41.7158 60.863ZM45.4897 35.2016H72.3457V33.8016H45.4897V35.2016ZM71.6457 34.5016V39.1096H73.0457V34.5016H71.6457ZM71.6457 39.1096C71.6457 39.8043 71.5373 40.4135 71.3323 40.9463L72.639 41.4489C72.9141 40.7337 73.0457 39.9509 73.0457 39.1096H71.6457ZM71.3323 40.9463C71.1341 41.4616 70.8156 41.924 70.3628 42.3357L71.3045 43.3716C71.9078 42.8232 72.3572 42.1816 72.639 41.4489L71.3323 40.9463ZM70.364 42.3345C69.9535 42.7059 69.3788 43.0235 68.6078 43.2658L69.0275 44.6014C69.9365 44.3157 70.7058 43.9133 71.3033 43.3727L70.364 42.3345ZM68.6254 43.2605C67.8652 43.4777 66.9255 43.5936 65.7937 43.5936V44.9936C67.0138 44.9936 68.0901 44.8695 69.01 44.6067L68.6254 43.2605ZM65.7937 43.5936H53.2657V44.9936H65.7937V43.5936ZM52.5756 44.1762L51.0996 52.8522L52.4797 53.087L53.9557 44.411L52.5756 44.1762Z" fill="#065D63"/>
</svg>
